<?xml version="1.0" encoding="UTF-8"?>
<svg id="Layer_1" data-name="Layer 1" xmlns="http://www.w3.org/2000/svg" viewBox="0 0 773.93 900.39">
  <path d="m0,387.04c43-64.49,85.8-128.67,129.15-193.68,85.87,236.1,171.4,471.26,256.92,706.41-.33.21-.66.41-.98.62C256.8,729.37,128.52,558.36,0,387.04Z" fill="none"/>
  <path d="m645.7,193.42c4.71,7.03,8.84,13.18,12.95,19.34,37.95,56.93,75.87,113.88,113.92,170.74,1.73,2.59,1.89,4.24,0,6.75-47.34,62.98-94.6,126.02-141.89,189.04-62.57,83.4-125.16,166.8-187.73,250.2-17.27,23.02-34.51,46.06-51.78,69.08-.49.65-1.09,1.21-2.45,1.43,85.51-235.14,171.03-470.27,256.98-706.6Z" fill="none"/>
  <path d="m441.49,92.77C487.83,61.88,533.89,31.18,580.54.08v257.41c-46.55-31.02-92.82-61.86-139.09-92.7-26.91,38.16-80.95,37.87-107.95-.06-46.25,30.82-92.51,61.66-139.32,92.85V0c46.68,31.11,92.92,61.92,139.15,92.73,26.85-38.24,82-37.46,108.15.04Z" fill="none"/>
  <path d="m419.86,612.95c.02,17.72-14.6,32.37-32.36,32.43-17.7.06-32.47-14.62-32.51-32.32-.04-17.65,14.69-32.38,32.41-32.4,17.75-.01,32.45,14.61,32.46,32.29Z" fill="none"/>
  <path d="m419.86,484.09c-.08,17.73-14.85,32.25-32.63,32.09-17.84-.16-32.42-14.86-32.24-32.52.18-17.76,14.8-32.09,32.67-32.04,17.77.05,32.28,14.69,32.2,32.47Z" fill="none"/>
  <path d="m387.62,386.94c-17.94.1-32.48-14.17-32.63-32.01-.14-17.48,14.34-32.23,31.77-32.36,18.3-.13,33.02,14.1,33.1,32,.07,17.84-14.29,32.26-32.24,32.37Z" fill="none"/>
</svg>